<?xml version="1.0" encoding="UTF-8"?>
<!-- Uploaded to: SVG Repo, www.svgrepo.com, Generator: SVG Repo Mixer Tools -->
<svg width="800px" height="800px" fill="none" version="1.1" viewBox="0 0 24 24" xmlns="http://www.w3.org/2000/svg">
 <path d="m12 22c-4.714 0-7.0711 0-8.5355-1.4645-1.4645-1.4644-1.4645-3.8215-1.4645-8.5355 0-4.714 0-7.0711 1.4645-8.5355 1.4645-1.4645 3.8215-1.4645 8.5355-1.4645 4.714 0 7.0711 0 8.5355 1.4645 1.4645 1.4645 1.4645 3.8215 1.4645 8.5355 0 4.714 0 7.0711-1.4645 8.5355-1.4644 1.4645-3.8215 1.4645-8.5355 1.4645zm4.0303-13.03c0.2929 0.29289 0.2929 0.76777 0 1.0606l-5 5c-0.2929 0.2929-0.7677 0.2929-1.0606 0l-2-2c-0.29289-0.2929-0.29289-0.7677 0-1.0606s0.76777-0.2929 1.0607 0l1.4697 1.4696 4.4697-4.4696c0.2929-0.29289 0.7677-0.29289 1.0606 0z" clip-rule="evenodd" fill="#c0cde9" fill-rule="evenodd"/>
</svg>
